<?xml version="1.0" encoding="UTF-8"?>
<!DOCTYPE svg PUBLIC "-//W3C//DTD SVG 1.1//EN" "http://www.w3.org/Graphics/SVG/1.1/DTD/svg11.dtd">
<!-- Creator: CorelDRAW X7 -->
<svg xmlns="http://www.w3.org/2000/svg" xml:space="preserve" width="122px" height="85px" version="1.1" style="shape-rendering:geometricPrecision; text-rendering:geometricPrecision; image-rendering:optimizeQuality; fill-rule:evenodd; clip-rule:evenodd"
viewBox="0 0 1341 934"
 xmlns:xlink="http://www.w3.org/1999/xlink">
 <defs>
  <style type="text/css">
   <![CDATA[
    .fil3 {fill:none}
    .fil2 {fill:black;fill-rule:nonzero}
    .fil1 {fill:#B3D2D7;fill-rule:nonzero}
    .fil0 {fill:#F3D7B6;fill-rule:nonzero}
   ]]>
  </style>
 </defs>
 <g id="Слой_x0020_1">
  <metadata id="CorelCorpID_0Corel-Layer"/>
  <path class="fil0" d="M297 431c-64,0 -116,52 -116,116 0,63 52,115 116,115 63,0 115,-52 115,-115 0,-64 -52,-116 -115,-116z"/>
  <path class="fil1" d="M297 481c-37,0 -66,29 -66,66 0,36 29,66 66,66 36,0 66,-30 66,-66 0,-37 -30,-66 -66,-66z"/>
  <path class="fil0" d="M326 116c6,-14 36,9 74,22 9,3 25,5 42,10 -9,-14 -15,-32 6,-28 0,0 -30,-44 3,-32 0,0 -18,-25 -7,-32 13,-8 25,28 49,60 13,17 52,50 53,84 0,16 -2,29 -3,40 0,0 1,0 1,0 1,0 1,0 1,0 1,0 2,-1 3,-1 0,0 0,0 0,0 1,-1 2,-1 3,-2 1,0 1,-1 1,-1 1,-1 2,-1 3,-3 13,-13 21,-30 35,-31 1,0 2,0 4,0 0,0 1,0 2,0 0,0 1,0 1,0 2,0 3,1 4,1 0,0 0,0 0,0 1,0 3,1 4,1 0,0 0,0 0,0 5,3 10,8 13,17l8 10 -12 3c0,0 -1,0 -1,0l0 0c0,0 -3,4 -9,6 -7,3 -13,30 -16,48 -4,19 -25,52 -64,44 -35,-8 -33,-2 -37,7 -4,9 -20,54 -20,54 0,0 -64,2 -79,-81l78 -11c0,0 30,-11 22,-17 -8,-6 -60,-4 -41,-20 0,0 -53,-14 -28,-35 0,0 -53,-15 -25,-28 0,0 -61,-21 -29,-35 0,0 -49,-19 -16,-28 0,0 -29,-10 -23,-22z"/>
  <path class="fil1" d="M442 148c0,0 -29,-35 5,-28 0,0 -30,-44 3,-32 0,0 -18,-25 -7,-32 13,-8 26,28 50,60 13,17 56,39 53,92 0,0 -23,-39 -51,-45 -29,-8 -53,-15 -53,-15z"/>
  <path class="fil2" d="M579 456c-3,0 -6,-2 -6,-6l0 -64 -71 0c-3,0 -6,-3 -6,-6 0,-4 3,-6 6,-6l83 0 0 76c0,4 -2,6 -6,6z"/>
  <path class="fil2" d="M6 456c-3,0 -6,-2 -6,-6l0 -76 83 0c3,0 6,2 6,6 0,3 -3,6 -6,6l-71 0 0 64c0,4 -3,6 -6,6z"/>
  <path class="fil2" d="M594 725l-84 0c-3,0 -6,-2 -6,-6 0,-3 3,-6 6,-6l71 0 0 -64c0,-4 3,-6 6,-6 4,0 7,2 7,6l0 76z"/>
  <path class="fil2" d="M83 725l-83 0 0 -76c0,-4 3,-6 6,-6 3,0 6,2 6,6l0 64 71 0c3,0 6,3 6,6 0,4 -3,6 -6,6z"/>
  <path class="fil2" d="M855 374l2 0c3,0 6,2 6,6l0 95c0,25 -6,43 -19,56 -12,12 -28,18 -47,18 -21,0 -38,-6 -51,-19 -13,-13 -19,-32 -19,-57l0 -93c0,-4 3,-6 6,-6l1 0c4,0 6,2 6,6l0 90c0,21 6,37 16,49 10,11 24,17 41,17 16,0 29,-5 38,-16 10,-11 14,-27 14,-48l0 -92c0,-4 3,-6 6,-6z"/>
  <path class="fil2" d="M928 547l-2 0c-3,0 -6,-3 -6,-6l0 -161c0,-4 3,-6 6,-6l85 0c3,0 6,2 6,6l0 0c0,4 -3,7 -6,7l-71 0c-3,0 -6,2 -6,6l0 59c0,3 3,6 6,6l63 0c4,0 7,3 7,6l0 1c0,3 -3,6 -7,6l-63 0c-3,0 -6,3 -6,6l0 64c0,3 -3,6 -6,6z"/>
  <path class="fil2" d="M1181 520l4 6c1,3 0,6 -2,8 -5,4 -12,8 -20,10 -9,4 -19,5 -30,5 -26,0 -47,-8 -63,-24 -16,-16 -24,-37 -24,-65 0,-25 8,-46 23,-63 16,-17 36,-26 62,-26 20,0 36,5 48,13 3,2 3,6 2,9 -2,2 -6,3 -9,2 -11,-7 -24,-11 -41,-11 -21,0 -38,8 -51,22 -13,14 -20,32 -20,54 0,23 7,41 21,55 13,14 31,22 53,22 18,0 34,-6 47,-17z"/>
  <path class="fil2" d="M1241 484l0 57c0,3 -3,6 -6,6l-1 0c-4,0 -7,-3 -7,-6l0 -161c0,-4 3,-6 7,-6 4,0 9,0 15,-1 7,0 14,0 21,0 11,0 21,2 30,5 8,3 14,7 19,12 4,5 8,10 10,16 2,6 3,13 3,19 0,16 -6,28 -16,38 -11,10 -26,16 -46,16 -9,0 -16,-1 -22,-1 -4,0 -7,3 -7,6zm30 -98l0 0c-5,0 -13,0 -24,0 -3,1 -6,3 -6,7l0 66c0,3 3,6 6,6 9,0 17,1 22,1 16,0 27,-4 36,-11 8,-8 12,-17 12,-30 0,-12 -4,-22 -11,-29 -8,-6 -20,-10 -35,-10z"/>
  <rect class="fil3" width="1341" height="934"/>
 </g>
</svg>
